<svg width="80" height="80" viewBox="0 0 80 80" fill="none" xmlns="http://www.w3.org/2000/svg">
<path fill-rule="evenodd" clip-rule="evenodd" d="M43.58 1.57505C43.1142 1.09729 42.5575 0.717602 41.9427 0.458356C41.3278 0.19911 40.6673 0.0655518 40 0.0655518C39.3328 0.0655518 38.6723 0.19911 38.0574 0.458356C37.4426 0.717602 36.8859 1.09729 36.42 1.57505L33.23 4.85005C32.6022 5.49516 31.8118 5.95879 30.9423 6.192C30.0728 6.42521 29.1565 6.41936 28.29 6.17505L23.89 4.93505C23.2478 4.75432 22.5759 4.70395 21.9139 4.78691C21.2519 4.86987 20.6132 5.08449 20.0354 5.41811C19.4576 5.75173 18.9524 6.19761 18.5497 6.72949C18.1469 7.26136 17.8546 7.86847 17.69 8.51505L16.56 12.945C16.3385 13.8171 15.8857 14.6133 15.2495 15.2495C14.6133 15.8857 13.8171 16.3385 12.945 16.56L8.51505 17.685C7.86847 17.8496 7.26136 18.1419 6.72949 18.5447C6.19761 18.9474 5.75173 19.4526 5.41811 20.0304C5.08449 20.6082 4.86987 21.2469 4.78691 21.9089C4.70395 22.5709 4.75432 23.2428 4.93505 23.885L6.17505 28.29C6.41936 29.1565 6.42521 30.0728 6.192 30.9423C5.95879 31.8118 5.49516 32.6022 4.85005 33.23L1.57505 36.42C1.09729 36.8859 0.717602 37.4426 0.458356 38.0574C0.19911 38.6723 0.0655518 39.3328 0.0655518 40C0.0655518 40.6673 0.19911 41.3278 0.458356 41.9427C0.717602 42.5575 1.09729 43.1142 1.57505 43.58L4.85005 46.775C5.49428 47.4025 5.95738 48.192 6.19057 49.0605C6.42375 49.929 6.41839 50.8443 6.17505 51.71L4.93505 56.11C4.75432 56.7523 4.70395 57.4242 4.78691 58.0862C4.86987 58.7482 5.08449 59.3869 5.41811 59.9647C5.75173 60.5425 6.19761 61.0476 6.72949 61.4504C7.26136 61.8532 7.86847 62.1455 8.51505 62.31L12.945 63.44C13.8171 63.6616 14.6133 64.1143 15.2495 64.7506C15.8857 65.3868 16.3385 66.183 16.56 67.055L17.685 71.485C17.849 72.1321 18.1409 72.7397 18.5435 73.2721C18.946 73.8046 19.4511 74.251 20.029 74.5851C20.6068 74.9193 21.2457 75.1343 21.908 75.2176C22.5702 75.3009 23.2425 75.2507 23.885 75.07L28.29 73.83C29.156 73.5851 30.0721 73.5785 30.9415 73.8108C31.811 74.0431 32.6016 74.5058 33.23 75.15L36.42 78.425C36.8859 78.9028 37.4426 79.2825 38.0574 79.5417C38.6723 79.801 39.3328 79.9345 40 79.9345C40.6673 79.9345 41.3278 79.801 41.9427 79.5417C42.5575 79.2825 43.1142 78.9028 43.58 78.425L46.775 75.15C47.403 74.5067 48.1928 74.0445 49.0612 73.8122C49.9297 73.5799 50.8448 73.5861 51.71 73.83L56.11 75.07C56.7526 75.2507 57.4249 75.3009 58.0871 75.2176C58.7494 75.1343 59.3883 74.9193 59.9661 74.5851C60.544 74.251 61.0491 73.8046 61.4516 73.2721C61.8542 72.7397 62.1461 72.1321 62.31 71.485L63.44 67.055C63.6616 66.183 64.1143 65.3868 64.7506 64.7506C65.3868 64.1143 66.183 63.6616 67.055 63.44L71.485 62.315C72.1321 62.1511 72.7397 61.8592 73.2721 61.4566C73.8046 61.0541 74.251 60.549 74.5851 59.9711C74.9193 59.3933 75.1343 58.7544 75.2176 58.0921C75.3009 57.4299 75.2507 56.7576 75.07 56.115L73.83 51.715C73.5851 50.8491 73.5785 49.933 73.8108 49.0635C74.0431 48.1941 74.5058 47.4034 75.15 46.775L78.425 43.58C78.9028 43.1142 79.2825 42.5575 79.5417 41.9427C79.801 41.3278 79.9345 40.6673 79.9345 40C79.9345 39.3328 79.801 38.6723 79.5417 38.0574C79.2825 37.4426 78.9028 36.8859 78.425 36.42L75.15 33.23C74.5058 32.6016 74.0431 31.811 73.8108 30.9415C73.5785 30.0721 73.5851 29.156 73.83 28.29L75.07 23.89C75.2507 23.2475 75.3009 22.5752 75.2176 21.913C75.1343 21.2507 74.9193 20.6118 74.5851 20.034C74.251 19.4561 73.8046 18.951 73.2721 18.5485C72.7397 18.1459 72.1321 17.854 71.485 17.69L67.055 16.56C66.183 16.3385 65.3868 15.8857 64.7506 15.2495C64.1143 14.6133 63.6616 13.8171 63.44 12.945L62.315 8.51505C62.1505 7.86847 61.8582 7.26136 61.4554 6.72949C61.0526 6.19761 60.5475 5.75173 59.9697 5.41811C59.3919 5.08449 58.7532 4.86987 58.0912 4.78691C57.4292 4.70395 56.7573 4.75432 56.115 4.93505L51.715 6.17505C50.8479 6.42032 49.9306 6.42668 49.0601 6.19344C48.1896 5.9602 47.3984 5.49604 46.77 4.85005L43.58 1.57505ZM58.865 31.45C59.5811 30.7592 59.9934 29.8121 60.0112 28.8172C60.0291 27.8223 59.6509 26.8611 58.96 26.145C58.2692 25.429 57.3221 25.0167 56.3272 24.9988C55.3323 24.981 54.3711 25.3592 53.655 26.05L32.9851 46.01L26.4 39.435C25.6952 38.7322 24.7401 38.3382 23.7447 38.3396C22.7494 38.341 21.7954 38.7377 21.0926 39.4425C20.3897 40.1474 19.9957 41.1025 19.9971 42.0978C19.9985 43.0932 20.3952 44.0472 21.1 44.75L30.295 53.92C30.9895 54.6139 31.9283 55.0077 32.9098 55.0171C33.8914 55.0264 34.8375 54.6505 35.545 53.97L58.865 31.45Z" fill="#1C70EB"/>
</svg>
