<svg width="163" height="60" viewBox="0 0 163 60" fill="none" xmlns="http://www.w3.org/2000/svg">
<path fill-rule="evenodd" clip-rule="evenodd" d="M22.0102 40.668C23.7392 40.2523 26.6883 39.5435 27.1377 39.2558L27.2697 39.2017L27.3746 39.1793C26.3669 38.0224 23.2238 34.9255 21.0263 32.759C20.0087 31.7573 19.1911 30.9509 18.8684 30.6157L18.7067 30.4401C18.4804 30.1933 18.3781 30.0818 17.8653 30.188L5.94084 33.4572L6.29719 33.8255L6.32952 33.8631C6.77826 34.4557 8.81407 36.5238 10.9924 38.6757C13.1364 40.7947 15.394 42.9817 16.3858 43.9009C16.4215 43.0351 16.4855 42.5692 16.9969 42.1667C17.476 41.7892 18.3055 41.5833 19.9513 41.1748L21.0039 40.9115C21.1358 40.8785 21.5344 40.7829 22.0102 40.668ZM29.9832 36.5581C30.0479 36.3542 30.0822 36.116 30.1086 35.8553L30.1211 35.7913L33.8067 22.2672C33.5097 22.3642 33.2966 22.4672 33.125 22.5497C32.6994 22.7542 32.4532 22.8723 32.0084 22.6796V22.6783C31.5544 22.4823 30.981 21.9095 29.6242 20.5534L28.7538 19.685C28.3578 19.2904 27.9177 18.8713 27.4683 18.4424C26.4342 17.4552 25.348 16.4191 24.4624 15.3705L24.2216 15.1488C23.885 16.1848 23.1439 18.7888 22.4352 21.3928C21.6862 24.1433 20.9827 26.87 20.8316 27.7418L29.9297 36.6987C29.9495 36.6525 29.9667 36.6063 29.9819 36.5581H29.9832ZM6.11967 25.2942C5.72043 26.7018 5.31063 28.1463 5.11793 29.3427L5.1054 29.3975L4.93976 29.938C6.1982 29.6654 8.96585 28.9507 11.5844 28.2367C14.3705 27.4778 16.9599 26.7341 17.3077 26.5546C17.4753 26.1936 18.3306 23.1878 19.1581 20.1463C19.8154 17.7264 20.4429 15.3059 20.6831 14.1807L20.0661 14.3094L6.27871 18.0398L6.28597 18.0458C7.83477 19.1854 7.78396 19.3603 7.1775 21.4463C7.0475 21.893 6.88714 22.4454 6.69445 23.2016C6.53079 23.8457 6.32622 24.5657 6.11967 25.2942ZM2.9673 23.7216C3.32827 22.2923 3.60411 21.0899 3.65361 20.5851C3.27416 20.3581 2.88482 20.1469 2.51725 19.9476C1.02586 19.1386 -0.159332 18.4958 0.0175232 17.1668C0.171281 16.0166 1.14464 15.777 2.08171 15.5467C2.22161 15.5124 2.35953 15.4781 2.45192 15.453L2.45324 15.451L15.9615 11.8327C17.7776 11.3787 19.1046 10.9703 20.1255 10.6568C21.7099 10.1698 22.5889 9.89989 23.3986 10.0345C24.4248 10.2048 25.1474 10.9703 26.7675 12.6854C27.1027 13.0397 27.4769 13.4363 27.888 13.8639C28.2866 14.2784 28.9531 14.931 29.6711 15.6345C30.8543 16.7933 32.1787 18.0907 32.7271 18.7387C33.129 18.6047 33.614 18.3078 34.1135 18.0016C35.2902 17.2823 36.54 16.5168 37.619 17.2275C38.8266 18.0234 38.0466 20.4353 37.5609 21.9359C37.4841 22.1664 37.4117 22.3983 37.3438 22.6315C36.9306 24.146 36.5269 25.6632 36.1329 27.1829C35.6076 29.1896 35.0843 31.1891 34.5458 33.0771C34.1734 34.4016 33.8164 35.7303 33.4748 37.063L33.1356 38.363C33.0353 38.7474 32.9416 39.1335 32.8544 39.5211C32.4169 41.4302 32.4024 41.4929 29.8393 42.1871V42.1858L19.9031 44.9211C19.9011 45.1409 19.9071 45.3975 19.9143 45.6754C19.9407 46.7708 19.9737 48.1665 19.5752 49.0508C19.195 49.8942 18.5081 50.3013 17.2747 49.7437C16.8167 49.5378 9.28788 41.9126 5.37002 37.9446C4.66916 37.2335 3.96702 36.5237 3.2636 35.8151C2.79507 35.3452 2.39252 34.9704 2.06059 34.6609C0.60352 33.3041 0.348137 33.0659 0.896518 31.2406C1.21789 30.1696 2.25658 26.5355 2.9673 23.7216Z" fill="#153E90"/>
<path d="M48.925 33.9849H58.2045V37.2448H46.2603V18.0944H49.9623V32.8136L48.925 33.9849ZM63.8382 30.4953C63.8382 32.2658 64.054 33.4293 64.4822 33.9889C64.9112 34.5485 65.7519 34.8302 67.0018 34.8302C68.3269 34.8302 69.3325 34.4877 70.0287 33.8034C70.6029 33.2326 70.9361 32.411 71.0305 31.3486V22.9731H74.7101V37.2448H71.1961C71.387 36.3172 71.6191 35.3986 71.8917 34.4917C71.6661 34.8226 71.4178 35.1375 71.1486 35.4341C70.005 36.738 68.2008 37.39 65.7361 37.39C63.594 37.39 62.1323 36.8146 61.3543 35.663C60.5716 34.5082 60.1823 32.8617 60.1823 30.7203V22.9731H63.8382V30.4953ZM89.1278 18.0944H92.8067V37.2448H89.1278L89.882 34.8784C89.5837 35.273 89.1667 35.6716 88.6322 36.0735C87.4773 36.9188 85.8969 37.3418 83.8921 37.3418H83.6677C81.5138 37.3088 79.9458 36.7096 78.9593 35.5469C77.9727 34.3835 77.4771 32.5602 77.4771 30.0763C77.4771 27.6056 77.9727 25.7941 78.9593 24.6386C79.9458 23.4878 81.5138 22.8925 83.6683 22.8523H83.9389C85.9279 22.8523 87.4925 23.2746 88.6322 24.1193C89.1667 24.5219 89.5837 24.9211 89.882 25.315L89.1278 18.0944ZM85.0086 34.8058C86.341 34.8058 87.3625 34.5286 88.0666 33.9723C88.7186 33.4576 89.0723 32.7086 89.1278 31.7267V28.4786C89.0723 27.4802 88.7186 26.7233 88.0666 26.2085C87.3625 25.6608 86.341 25.3876 85.0086 25.3876C83.6096 25.3876 82.6264 25.6648 82.0562 26.2251C81.4867 26.7847 81.2036 28.0728 81.2036 30.0848C81.2036 32.1292 81.4867 33.4253 82.0562 33.977C82.6264 34.528 83.609 34.8058 85.0086 34.8058ZM102.862 37.3662C100.33 37.3662 98.3724 36.806 96.9892 35.6874C95.6061 34.5682 94.9138 32.6888 94.9138 30.0486C94.9138 27.4083 95.6054 25.5447 96.9892 24.4578C98.3724 23.371 100.33 22.8279 102.862 22.8279C105.385 22.8279 107.339 23.371 108.718 24.4578C110.098 25.5447 110.785 27.4076 110.785 30.0486C110.785 32.6888 110.098 34.5689 108.718 35.6874C107.339 36.806 105.385 37.3662 102.862 37.3662ZM102.869 34.854C104.304 34.854 105.373 34.5722 106.076 34.0047C106.78 33.4372 107.13 32.1253 107.13 30.065C107.13 28.016 106.78 26.7121 106.077 26.1518C105.373 25.5929 104.304 25.315 102.87 25.315C101.431 25.315 100.357 25.5929 99.6539 26.1525C98.9465 26.7121 98.5928 28.016 98.5928 30.0644C98.5928 32.1253 98.9465 33.4372 99.6539 34.0047C100.357 34.5722 101.431 34.854 102.869 34.854ZM117.079 41.5916H113.4V22.876H117.079L116.324 25.2306C116.615 24.8359 117.031 24.4453 117.574 24.0513C118.729 23.202 120.329 22.7797 122.373 22.7797H122.538C124.692 22.8193 126.265 23.4515 127.251 24.6796C128.238 25.907 128.729 27.698 128.729 30.0486C128.729 32.3991 128.234 34.1782 127.247 35.3852C126.261 36.5928 124.692 37.2211 122.538 37.2693H122.314C120.31 37.2693 118.726 36.8383 117.57 35.9811C117.028 35.5865 116.611 35.1925 116.32 34.7933L117.079 41.5916ZM118.14 33.8885C118.843 34.4356 119.866 34.7095 121.198 34.7095C122.589 34.7095 123.572 34.4033 124.142 33.7876C124.716 33.1719 125.003 31.9161 125.003 30.0162C125.003 28.1124 124.716 26.8526 124.142 26.2369C123.572 25.6212 122.589 25.315 121.199 25.315C119.866 25.315 118.843 25.5928 118.14 26.1485C117.48 26.6632 117.126 27.4162 117.079 28.4146V31.6106C117.126 32.6163 117.479 33.3725 118.14 33.8885ZM143.288 34.6607C142.872 35.281 142.506 35.7396 142.195 36.0372C141.885 36.3355 141.496 36.5889 141.032 36.8027C140.568 37.0158 140.022 37.1723 139.389 37.2693C138.693 37.3707 137.99 37.4192 137.286 37.4144C136.728 37.4144 136.154 37.3735 135.561 37.297C134.971 37.2211 134.412 37.0924 133.883 36.9109C133.374 36.7402 132.898 36.4874 132.471 36.1626C132.054 35.8396 131.719 35.4214 131.496 34.9431C131.261 34.4481 131.143 33.7994 131.143 32.995C131.143 32.2784 131.261 31.6864 131.496 31.2199C131.732 30.7527 132.051 30.3501 132.452 30.0162C132.852 29.6823 133.336 29.4203 133.898 29.2309C134.478 29.038 135.076 28.9008 135.683 28.8211C136.308 28.7367 136.921 28.6958 137.518 28.6958H142.675V27.9474C142.675 27.1265 142.521 26.5187 142.215 26.1241C141.909 25.7301 141.492 25.48 140.969 25.3758C140.447 25.2702 139.668 25.2187 138.639 25.2187C137.727 25.2187 136.991 25.2748 136.437 25.3876C135.883 25.4998 135.443 25.7334 135.117 26.0878C134.787 26.4422 134.622 26.9978 134.613 27.7541H131.213C131.253 26.5464 131.528 25.6213 132.035 24.9772C132.542 24.3331 133.143 23.8745 133.839 23.6006C134.535 23.3268 135.247 23.1334 135.973 23.0212C136.704 22.909 137.64 22.8523 138.792 22.8523C140.835 22.8523 142.302 23.0093 143.186 23.3228C144.07 23.6369 144.821 24.1721 145.434 24.929C146.048 25.6853 146.354 26.7847 146.354 28.2252V37.2448H142.793L143.288 34.6607ZM138.037 35.0962C138.592 35.0962 139.126 35.0592 139.641 34.9873C140.16 34.9147 140.631 34.786 141.068 34.6006C141.5 34.4158 141.865 34.1822 142.16 33.8965C142.455 33.6147 142.628 33.3091 142.674 32.9864L142.781 30.7731H137.895C137.486 30.7731 137.097 30.8008 136.732 30.8616C136.392 30.9134 136.063 31.0194 135.757 31.1757C135.475 31.3216 135.242 31.5486 135.09 31.8277C134.928 32.1134 134.845 32.4796 134.845 32.9264C134.845 33.4411 134.936 33.8437 135.116 34.134C135.289 34.4135 135.543 34.6338 135.844 34.7656C136.172 34.9043 136.519 34.9939 136.873 35.0315C137.26 35.0752 137.648 35.0972 138.037 35.0962ZM155.182 34.6369L158.791 22.9731H162.635L157.788 37.2448C156.806 39.8528 155.875 41.2821 154.994 41.5316C154.113 41.781 152.023 41.9058 148.721 41.9058V38.9111C151.441 38.9111 152.954 38.851 153.261 38.7303C153.567 38.6049 153.936 38.106 154.369 37.2455H153.024L148.119 22.9731H151.951L155.182 34.6369Z" fill="#020202"/>
</svg>
