<svg width="29" height="28" viewBox="0 0 29 28" fill="none" xmlns="http://www.w3.org/2000/svg">
<path d="M26.82 14.2917C26.82 13.3817 26.7383 12.5067 26.5867 11.6667H14.5V16.6309H21.4067C21.1092 18.2351 20.205 19.5942 18.8458 20.5042V23.7242H22.9933C25.42 21.4901 26.82 18.2001 26.82 14.2917Z" fill="#4285F4"/>
<path d="M14.5001 26.8334C17.9651 26.8334 20.8701 25.6842 22.9934 23.7242L18.8459 20.5042C17.6967 21.2742 16.2267 21.7292 14.5001 21.7292C11.1576 21.7292 8.3284 19.4717 7.31924 16.4384H3.03174V19.7634C5.1434 23.9575 9.48341 26.8334 14.5001 26.8334Z" fill="#34A853"/>
<path d="M7.319 16.4382C7.06234 15.6682 6.9165 14.8457 6.9165 13.9999C6.9165 13.1541 7.06234 12.3316 7.319 11.5616V8.23657H3.0315C2.13317 10.0249 1.66571 11.9986 1.6665 13.9999C1.6665 16.0707 2.16234 18.0307 3.0315 19.7632L7.319 16.4382Z" fill="#FBBC05"/>
<path d="M14.5001 6.27091C16.3842 6.27091 18.0759 6.91841 19.4059 8.19008L23.0867 4.50925C20.8642 2.43841 17.9592 1.16675 14.5001 1.16675C9.4834 1.16675 5.1434 4.04258 3.03174 8.23675L7.31924 11.5617C8.3284 8.52841 11.1576 6.27091 14.5001 6.27091Z" fill="#EA4335"/>
</svg>
