<svg width="164" height="40" viewBox="0 0 164 40" fill="none" xmlns="http://www.w3.org/2000/svg">
<path fill-rule="evenodd" clip-rule="evenodd" d="M22.0102 30.668C23.7392 30.2523 26.6883 29.5435 27.1377 29.2558L27.2697 29.2017L27.3746 29.1793C26.3669 28.0224 23.2238 24.9255 21.0263 22.759C20.0087 21.7573 19.1911 20.9509 18.8684 20.6157L18.7067 20.4401C18.4804 20.1933 18.3781 20.0818 17.8653 20.188L5.94084 23.4572L6.29719 23.8255L6.32952 23.8631C6.77826 24.4557 8.81407 26.5238 10.9924 28.6757C13.1364 30.7947 15.394 32.9817 16.3858 33.9009C16.4215 33.0351 16.4855 32.5692 16.9969 32.1667C17.476 31.7892 18.3055 31.5833 19.9513 31.1748L21.0039 30.9115C21.1358 30.8785 21.5344 30.7829 22.0102 30.668ZM29.9832 26.5581C30.0479 26.3542 30.0822 26.116 30.1086 25.8553L30.1211 25.7913L33.8067 12.2672C33.5097 12.3642 33.2966 12.4672 33.125 12.5497C32.6994 12.7542 32.4532 12.8723 32.0084 12.6796V12.6783C31.5544 12.4823 30.981 11.9095 29.6242 10.5534L28.7538 9.685C28.3578 9.29038 27.9177 8.87134 27.4683 8.4424C26.4342 7.45518 25.348 6.41911 24.4624 5.37052L24.2216 5.14879C23.885 6.18484 23.1439 8.78881 22.4352 11.3928C21.6862 14.1433 20.9827 16.87 20.8316 17.7418L29.9297 26.6987C29.9495 26.6525 29.9667 26.6063 29.9819 26.5581H29.9832ZM6.11967 15.2942C5.72043 16.7018 5.31063 18.1463 5.11793 19.3427L5.1054 19.3975L4.93976 19.938C6.1982 19.6654 8.96585 18.9507 11.5844 18.2367C14.3705 17.4778 16.9599 16.7341 17.3077 16.5546C17.4753 16.1936 18.3306 13.1878 19.1581 10.1463C19.8154 7.72638 20.4429 5.30586 20.6831 4.18072L20.0661 4.30941L6.27871 8.03983L6.28597 8.04579C7.83477 9.18545 7.78396 9.36033 7.1775 11.4463C7.0475 11.893 6.88714 12.4454 6.69445 13.2016C6.53079 13.8457 6.32622 14.5657 6.11967 15.2942ZM2.9673 13.7216C3.32827 12.2923 3.60411 11.0899 3.65361 10.5851C3.27416 10.3581 2.88482 10.1469 2.51725 9.94761C1.02586 9.13856 -0.159332 8.49582 0.0175232 7.16677C0.171281 6.01655 1.14464 5.77704 2.08171 5.54673C2.22161 5.51242 2.35953 5.47808 2.45192 5.453L2.45324 5.45103L15.9615 1.83274C17.7776 1.37873 19.1046 0.970261 20.1255 0.656803C21.7099 0.169792 22.5889 -0.100105 23.3986 0.0345154C24.4248 0.204773 25.1474 0.970284 26.7675 2.68538C27.1027 3.03975 27.4769 3.43632 27.888 3.86394C28.2866 4.27836 28.9531 4.93103 29.6711 5.63449C30.8543 6.79329 32.1787 8.09065 32.7271 8.73868C33.129 8.60472 33.614 8.30776 34.1135 8.00156C35.2902 7.28226 36.54 6.51679 37.619 7.22751C38.8266 8.02336 38.0466 10.4353 37.5609 11.9359C37.4841 12.1664 37.4117 12.3983 37.3438 12.6315C36.9306 14.146 36.5269 15.6632 36.1329 17.1829C35.6076 19.1896 35.0843 21.1891 34.5458 23.0771C34.1734 24.4016 33.8164 25.7303 33.4748 27.063L33.1356 28.363C33.0353 28.7474 32.9416 29.1335 32.8544 29.5211C32.4169 31.4302 32.4024 31.4929 29.8393 32.1871V32.1858L19.9031 34.9211C19.9011 35.1409 19.9071 35.3975 19.9143 35.6754C19.9407 36.7708 19.9737 38.1665 19.5752 39.0508C19.195 39.8942 18.5081 40.3013 17.2747 39.7437C16.8167 39.5378 9.28788 31.9126 5.37002 27.9446C4.66916 27.2335 3.96702 26.5237 3.2636 25.8151C2.79507 25.3452 2.39252 24.9704 2.06059 24.6609C0.60352 23.3041 0.348137 23.0659 0.896518 21.2406C1.21789 20.1696 2.25658 16.5355 2.9673 13.7216Z" fill="#153E90"/>
<path d="M49.339 23.5105H58.6186V26.7704H46.6743V7.62H50.3764V22.3392L49.339 23.5105ZM64.2522 20.021C64.2522 21.7915 64.468 22.9549 64.8963 23.5145C65.3252 24.0741 66.166 24.3559 67.4158 24.3559C68.7409 24.3559 69.7466 24.0134 70.4428 23.3291C71.0169 22.7582 71.3502 21.9366 71.4445 20.8742V12.4987H75.1242V26.7704H71.6102C71.8011 25.8429 72.0332 24.9243 72.3057 24.0173C72.0801 24.3482 71.8318 24.6631 71.5627 24.9597C70.4191 26.2637 68.6149 26.9156 66.1501 26.9156C64.0081 26.9156 62.5464 26.3402 61.7683 25.1887C60.9857 24.0338 60.5964 22.3874 60.5964 20.246V12.4987H64.2522V20.021ZM89.5418 7.62H93.2208V26.7704H89.5418L90.2961 24.404C89.9978 24.7986 89.5807 25.1973 89.0462 25.5991C87.8914 26.4445 86.3109 26.8675 84.3061 26.8675H84.0817C81.9278 26.8345 80.3599 26.2353 79.3733 25.0725C78.3868 23.9091 77.8912 22.0858 77.8912 19.6019C77.8912 17.1312 78.3868 15.3198 79.3733 14.1643C80.3599 13.0134 81.9278 12.4182 84.0824 12.3779H84.353C86.3419 12.3779 87.9066 12.8003 89.0462 13.6449C89.5807 14.0475 89.9978 14.4467 90.2961 14.8407L89.5418 7.62ZM85.4227 24.3314C86.755 24.3314 87.7766 24.0543 88.4807 23.498C89.1327 22.9833 89.4864 22.2343 89.5418 21.2523V18.0043C89.4864 17.0058 89.1327 16.2489 88.4807 15.7342C87.7766 15.1865 86.755 14.9133 85.4227 14.9133C84.0237 14.9133 83.0404 15.1904 82.4703 15.7507C81.9008 16.3103 81.6177 17.5984 81.6177 19.6105C81.6177 21.6549 81.9008 22.9509 82.4703 23.5026C83.0404 24.0536 84.023 24.3314 85.4227 24.3314ZM103.276 26.8919C100.744 26.8919 98.7864 26.3316 97.4033 25.2131C96.0201 24.0939 95.3279 22.2145 95.3279 19.5742C95.3279 16.9339 96.0195 15.0703 97.4033 13.9835C98.7864 12.8966 100.744 12.3535 103.276 12.3535C105.799 12.3535 107.753 12.8966 109.132 13.9835C110.512 15.0703 111.199 16.9332 111.199 19.5742C111.199 22.2145 110.512 24.0945 109.132 25.2131C107.753 26.3316 105.799 26.8919 103.276 26.8919ZM103.283 24.3796C104.718 24.3796 105.787 24.0978 106.49 23.5303C107.194 22.9628 107.544 21.6509 107.544 19.5907C107.544 17.5417 107.194 16.2377 106.491 15.6774C105.787 15.1185 104.718 14.8407 103.284 14.8407C101.845 14.8407 100.771 15.1185 100.068 15.6781C99.3606 16.2377 99.0068 17.5417 99.0068 19.59C99.0068 21.6509 99.3606 22.9628 100.068 23.5303C100.771 24.0978 101.845 24.3796 103.283 24.3796ZM117.493 31.1173H113.814V12.4017H117.493L116.738 14.7562C117.029 14.3616 117.445 13.9709 117.988 13.577C119.143 12.7277 120.743 12.3053 122.787 12.3053H122.952C125.106 12.3449 126.679 12.9771 127.665 14.2052C128.652 15.4326 129.143 17.2236 129.143 19.5742C129.143 21.9248 128.648 23.7039 127.661 24.9108C126.675 26.1185 125.106 26.7467 122.952 26.7949H122.728C120.724 26.7949 119.14 26.364 117.984 25.5067C117.442 25.1121 117.025 24.7182 116.734 24.3189L117.493 31.1173ZM118.554 23.4142C119.257 23.9612 120.28 24.2351 121.612 24.2351C123.003 24.2351 123.986 23.9289 124.556 23.3132C125.13 22.6975 125.417 21.4417 125.417 19.5419C125.417 17.638 125.13 16.3783 124.556 15.7626C123.986 15.1469 123.003 14.8407 121.613 14.8407C120.28 14.8407 119.257 15.1185 118.554 15.6741C117.894 16.1889 117.54 16.9418 117.493 17.9403V21.1362C117.54 22.1419 117.893 22.8981 118.554 23.4142ZM143.702 24.1863C143.286 24.8066 142.92 25.2652 142.609 25.5628C142.299 25.8611 141.91 26.1145 141.446 26.3283C140.982 26.5415 140.436 26.6979 139.803 26.7949C139.107 26.8964 138.404 26.9449 137.7 26.9401C137.142 26.9401 136.568 26.8992 135.975 26.8226C135.385 26.7467 134.827 26.618 134.297 26.4365C133.788 26.2658 133.312 26.013 132.885 25.6882C132.468 25.3652 132.133 24.9471 131.91 24.4687C131.675 23.9738 131.557 23.3251 131.557 22.5207C131.557 21.804 131.675 21.2121 131.91 20.7455C132.146 20.2783 132.465 19.8758 132.866 19.5419C133.267 19.2079 133.75 18.946 134.312 18.7566C134.892 18.5637 135.49 18.4265 136.097 18.3468C136.722 18.2623 137.335 18.2214 137.932 18.2214H143.089V17.473C143.089 16.6521 142.935 16.0443 142.629 15.6497C142.323 15.2558 141.906 15.0057 141.383 14.9014C140.861 14.7958 140.082 14.7443 139.053 14.7443C138.141 14.7443 137.405 14.8004 136.851 14.9133C136.297 15.0255 135.857 15.2591 135.531 15.6134C135.201 15.9678 135.036 16.5235 135.027 17.2797H131.627C131.667 16.0721 131.942 15.1469 132.449 14.5028C132.956 13.8587 133.558 13.4001 134.253 13.1263C134.949 12.8524 135.661 12.659 136.387 12.5469C137.118 12.4347 138.054 12.3779 139.206 12.3779C141.249 12.3779 142.716 12.535 143.6 12.8484C144.484 13.1625 145.235 13.6977 145.848 14.4546C146.462 15.2109 146.768 16.3103 146.768 17.7509V26.7704H143.207L143.702 24.1863ZM138.451 24.6218C139.006 24.6218 139.54 24.5849 140.055 24.5129C140.574 24.4403 141.045 24.3117 141.482 24.1262C141.914 23.9415 142.28 23.7078 142.574 23.4221C142.869 23.1403 143.042 22.8348 143.089 22.5121L143.195 20.2987H138.31C137.9 20.2987 137.511 20.3265 137.146 20.3872C136.806 20.439 136.477 20.5451 136.171 20.7013C135.889 20.8472 135.656 21.0742 135.504 21.3533C135.342 21.639 135.259 22.0053 135.259 22.452C135.259 22.9667 135.35 23.3693 135.53 23.6597C135.703 23.9391 135.957 24.1594 136.258 24.2912C136.586 24.43 136.933 24.5195 137.287 24.5571C137.674 24.6008 138.062 24.6228 138.451 24.6218ZM155.596 24.1625L159.205 12.4987H163.049L158.202 26.7704C157.22 29.3784 156.289 30.8078 155.408 31.0572C154.527 31.3067 152.437 31.4314 149.135 31.4314V28.4367C151.855 28.4367 153.368 28.3767 153.675 28.2559C153.981 28.1305 154.351 27.6316 154.783 26.7711H153.439L148.533 12.4987H152.366L155.596 24.1625Z" fill="#020202"/>
</svg>
